<svg width="491" height="141" viewBox="0 0 491 141" fill="none" xmlns="http://www.w3.org/2000/svg">
<g clip-path="url(#clip0_90_25)">
<line x1="209.926" y1="69.0118" x2="438.926" y2="68" stroke="#4599CB" stroke-width="8"/>
<line x1="209.926" y1="69.0118" x2="438.926" y2="68" stroke="black" stroke-opacity="0.2" stroke-width="8"/>
<path d="M223.602 47.8423H220.588C220.533 47.4524 220.421 47.1061 220.251 46.8034C220.081 46.496 219.863 46.2346 219.597 46.019C219.331 45.8034 219.024 45.6383 218.675 45.5236C218.331 45.4089 217.957 45.3516 217.554 45.3516C216.824 45.3516 216.189 45.5328 215.648 45.8952C215.107 46.2529 214.687 46.7758 214.389 47.4639C214.091 48.1473 213.942 48.9775 213.942 49.9545C213.942 50.9591 214.091 51.8031 214.389 52.4865C214.692 53.17 215.114 53.686 215.655 54.0346C216.196 54.3832 216.822 54.5575 217.533 54.5575C217.932 54.5575 218.301 54.5047 218.641 54.3992C218.985 54.2937 219.29 54.1401 219.556 53.9383C219.822 53.7318 220.042 53.4819 220.216 53.1883C220.395 52.8947 220.519 52.5599 220.588 52.1838L223.602 52.1975C223.524 52.8443 223.329 53.4681 223.017 54.069C222.709 54.6653 222.294 55.1996 221.771 55.6721C221.253 56.14 220.634 56.5115 219.914 56.7867C219.198 57.0573 218.389 57.1926 217.485 57.1926C216.228 57.1926 215.104 56.9083 214.114 56.3395C213.127 55.7707 212.348 54.9474 211.774 53.8695C211.205 52.7915 210.921 51.4866 210.921 49.9545C210.921 48.4179 211.21 47.1107 211.788 46.0328C212.366 44.9548 213.15 44.1338 214.141 43.5696C215.132 43.0008 216.246 42.7164 217.485 42.7164C218.301 42.7164 219.058 42.8311 219.755 43.0605C220.457 43.2898 221.079 43.6246 221.62 44.065C222.161 44.5007 222.602 45.0351 222.941 45.6681C223.285 46.3011 223.505 47.0258 223.602 47.8423ZM230.733 57H225.738V42.9091H230.774C232.192 42.9091 233.412 43.1912 234.435 43.7554C235.457 44.315 236.244 45.12 236.795 46.1704C237.35 47.2208 237.627 48.4776 237.627 49.9408C237.627 51.4086 237.35 52.67 236.795 53.725C236.244 54.7799 235.453 55.5895 234.421 56.1537C233.393 56.7179 232.164 57 230.733 57ZM228.717 54.4474H230.609C231.49 54.4474 232.231 54.2914 232.831 53.9795C233.437 53.663 233.891 53.1745 234.194 52.514C234.501 51.8489 234.655 50.9912 234.655 49.9408C234.655 48.8996 234.501 48.0487 234.194 47.3882C233.891 46.7277 233.439 46.2415 232.838 45.9296C232.237 45.6176 231.497 45.4617 230.616 45.4617H228.717V54.4474ZM242.813 42.9091V57H239.834V42.9091H242.813ZM257.393 46.9616C257.338 46.4066 257.101 45.9754 256.684 45.6681C256.266 45.3608 255.7 45.2071 254.984 45.2071C254.498 45.2071 254.088 45.2759 253.753 45.4135C253.418 45.5465 253.161 45.7323 252.982 45.9708C252.808 46.2094 252.721 46.48 252.721 46.7827C252.712 47.035 252.764 47.2552 252.879 47.4432C252.998 47.6313 253.161 47.7941 253.368 47.9317C253.574 48.0647 253.812 48.1817 254.083 48.2826C254.354 48.379 254.643 48.4615 254.95 48.5303L256.216 48.8331C256.831 48.9707 257.395 49.1541 257.909 49.3835C258.422 49.6128 258.867 49.8949 259.243 50.2298C259.619 50.5646 259.911 50.9591 260.117 51.4132C260.328 51.8673 260.436 52.3879 260.441 52.975C260.436 53.8373 260.216 54.585 259.78 55.218C259.349 55.8464 258.725 56.3349 257.909 56.6835C257.097 57.0275 256.117 57.1995 254.971 57.1995C253.833 57.1995 252.842 57.0252 251.998 56.6766C251.159 56.328 250.503 55.812 250.031 55.1286C249.563 54.4405 249.317 53.5897 249.294 52.5759H252.177C252.209 53.0484 252.345 53.4429 252.583 53.7594C252.826 54.0713 253.15 54.3075 253.553 54.468C253.962 54.624 254.423 54.702 254.936 54.702C255.441 54.702 255.879 54.6286 256.25 54.4818C256.627 54.335 256.918 54.1309 257.124 53.8695C257.331 53.608 257.434 53.3076 257.434 52.9681C257.434 52.6516 257.34 52.3856 257.152 52.17C256.968 51.9544 256.698 51.771 256.34 51.6196C255.987 51.4682 255.553 51.3306 255.039 51.2068L253.505 50.8215C252.317 50.5325 251.379 50.0807 250.691 49.466C250.003 48.8514 249.661 48.0235 249.666 46.9822C249.661 46.1291 249.888 45.3837 250.347 44.7461C250.81 44.1086 251.446 43.6109 252.253 43.2531C253.06 42.8953 253.978 42.7164 255.005 42.7164C256.051 42.7164 256.964 42.8953 257.743 43.2531C258.528 43.6109 259.138 44.1086 259.574 44.7461C260.009 45.3837 260.234 46.1222 260.248 46.9616H257.393ZM264.552 57H261.359L266.223 42.9091H270.063L274.92 57H271.728L268.198 46.1291H268.088L264.552 57ZM264.352 51.4613H271.893V53.7869H264.352V51.4613ZM276.616 57V42.9091H279.595V49.122H279.781L284.852 42.9091H288.423L283.194 49.2184L288.485 57H284.921L281.061 51.2068L279.595 52.9956V57H276.616ZM292.403 57H289.211L294.075 42.9091H297.914L302.772 57H299.579L296.05 46.1291H295.94L292.403 57ZM292.204 51.4613H299.744V53.7869H292.204V51.4613ZM302.209 45.3654V42.9091H313.782V45.3654H309.468V57H306.523V45.3654H302.209ZM316.395 57H313.202L318.067 42.9091H321.906L326.763 57H323.571L320.041 46.1291H319.931L316.395 57ZM316.195 51.4613H323.736V53.7869H316.195V51.4613ZM335.923 42.9091V57H332.944V42.9091H335.923ZM350.16 42.9091V57H347.587L341.456 48.1313H341.353V57H338.374V42.9091H340.989L347.071 51.771H347.195V42.9091H350.16ZM355.415 42.9091L358.256 47.7116H358.366L361.222 42.9091H364.586L360.286 49.9545L364.683 57H361.256L358.366 52.1907H358.256L355.367 57H351.954L356.364 49.9545L352.037 42.9091H355.415ZM383.389 47.8423H380.375C380.32 47.4524 380.208 47.1061 380.038 46.8034C379.868 46.496 379.65 46.2346 379.384 46.019C379.118 45.8034 378.811 45.6383 378.462 45.5236C378.118 45.4089 377.744 45.3516 377.341 45.3516C376.611 45.3516 375.976 45.5328 375.435 45.8952C374.894 46.2529 374.474 46.7758 374.176 47.4639C373.878 48.1473 373.729 48.9775 373.729 49.9545C373.729 50.9591 373.878 51.8031 374.176 52.4865C374.479 53.17 374.9 53.686 375.442 54.0346C375.983 54.3832 376.609 54.5575 377.32 54.5575C377.719 54.5575 378.088 54.5047 378.428 54.3992C378.772 54.2937 379.077 54.1401 379.343 53.9383C379.609 53.7318 379.829 53.4819 380.003 53.1883C380.182 52.8947 380.306 52.5599 380.375 52.1838L383.389 52.1975C383.311 52.8443 383.116 53.4681 382.804 54.069C382.496 54.6653 382.081 55.1996 381.558 55.6721C381.04 56.14 380.421 56.5115 379.701 56.7867C378.985 57.0573 378.176 57.1926 377.272 57.1926C376.015 57.1926 374.891 56.9083 373.901 56.3395C372.914 55.7707 372.135 54.9474 371.561 53.8695C370.992 52.7915 370.708 51.4866 370.708 49.9545C370.708 48.4179 370.997 47.1107 371.575 46.0328C372.153 44.9548 372.937 44.1338 373.928 43.5696C374.919 43.0008 376.033 42.7164 377.272 42.7164C378.088 42.7164 378.845 42.8311 379.542 43.0605C380.244 43.2898 380.866 43.6246 381.407 44.065C381.948 44.5007 382.389 45.0351 382.728 45.6681C383.072 46.3011 383.292 47.0258 383.389 47.8423ZM398.474 49.9545C398.474 51.4912 398.182 52.7984 397.6 53.8763C397.022 54.9542 396.233 55.7776 395.233 56.3464C394.238 56.9106 393.118 57.1926 391.875 57.1926C390.623 57.1926 389.499 56.9083 388.504 56.3395C387.509 55.7707 386.722 54.9474 386.144 53.8695C385.566 52.7915 385.277 51.4866 385.277 49.9545C385.277 48.4179 385.566 47.1107 386.144 46.0328C386.722 44.9548 387.509 44.1338 388.504 43.5696C389.499 43.0008 390.623 42.7164 391.875 42.7164C393.118 42.7164 394.238 43.0008 395.233 43.5696C396.233 44.1338 397.022 44.9548 397.6 46.0328C398.182 47.1107 398.474 48.4179 398.474 49.9545ZM395.453 49.9545C395.453 48.9592 395.304 48.1198 395.006 47.4363C394.712 46.7529 394.297 46.2346 393.761 45.8814C393.224 45.5282 392.596 45.3516 391.875 45.3516C391.155 45.3516 390.527 45.5282 389.99 45.8814C389.454 46.2346 389.036 46.7529 388.738 47.4363C388.444 48.1198 388.298 48.9592 388.298 49.9545C388.298 50.9499 388.444 51.7893 388.738 52.4727C389.036 53.1562 389.454 53.6745 389.99 54.0277C390.527 54.3809 391.155 54.5575 391.875 54.5575C392.596 54.5575 393.224 54.3809 393.761 54.0277C394.297 53.6745 394.712 53.1562 395.006 52.4727C395.304 51.7893 395.453 50.9499 395.453 49.9545ZM400.681 57V42.9091H406.24C407.304 42.9091 408.212 43.0994 408.964 43.4802C409.721 43.8563 410.297 44.3907 410.691 45.0833C411.09 45.7713 411.29 46.5809 411.29 47.512C411.29 48.4478 411.088 49.2528 410.685 49.927C410.281 50.5967 409.696 51.1104 408.93 51.4682C408.169 51.826 407.247 52.0049 406.164 52.0049H402.442V49.6105H405.683C406.251 49.6105 406.724 49.5326 407.1 49.3766C407.476 49.2206 407.756 48.9867 407.939 48.6748C408.127 48.3629 408.221 47.9753 408.221 47.512C408.221 47.0442 408.127 46.6497 407.939 46.3286C407.756 46.0075 407.474 45.7644 407.093 45.5993C406.717 45.4296 406.242 45.3447 405.669 45.3447H403.66V57H400.681ZM408.29 50.5875L411.792 57H408.503L405.077 50.5875H408.29ZM413.395 57V42.9091H418.955C420.023 42.9091 420.934 43.1132 421.686 43.5214C422.438 43.9251 423.012 44.487 423.406 45.2071C423.805 45.9227 424.005 46.7483 424.005 47.684C424.005 48.6198 423.803 49.4454 423.399 50.161C422.996 50.8765 422.411 51.4338 421.645 51.8329C420.883 52.2319 419.961 52.4315 418.879 52.4315H415.336V50.044H418.397C418.971 50.044 419.443 49.9454 419.815 49.7481C420.191 49.5463 420.471 49.2688 420.654 48.9156C420.842 48.5578 420.936 48.1473 420.936 47.684C420.936 47.2162 420.842 46.8079 420.654 46.4593C420.471 46.1061 420.191 45.8332 419.815 45.6406C419.439 45.4433 418.962 45.3447 418.384 45.3447H416.375V57H413.395ZM426.936 57.1789C426.482 57.1789 426.092 57.0183 425.766 56.6973C425.445 56.3716 425.285 55.9817 425.285 55.5276C425.285 55.0781 425.445 54.6928 425.766 54.3717C426.092 54.0506 426.482 53.8901 426.936 53.8901C427.376 53.8901 427.761 54.0506 428.092 54.3717C428.422 54.6928 428.587 55.0781 428.587 55.5276C428.587 55.8303 428.509 56.1079 428.353 56.3601C428.202 56.6078 428.002 56.8074 427.755 56.9587C427.507 57.1055 427.234 57.1789 426.936 57.1789Z" fill="black"/>
<line x1="209.919" y1="68.9766" x2="367.921" y2="68.0019" stroke="white" stroke-width="8"/>
<line x1="209.919" y1="68.9766" x2="367.921" y2="68.0019" stroke="black" stroke-opacity="0.2" stroke-width="8"/>
<path d="M203.534 82.9258L191.541 83.2305L190.944 26.3047L202.938 26L203.534 82.9258Z" fill="#60A5FA"/>
<ellipse cx="174.444" cy="59" rx="25.5" ry="25" fill="#60A5FA"/>
<circle cx="173.444" cy="59.5" r="19.5" fill="white"/>
<path d="M203.944 14.5C203.944 18.6421 200.81 22 196.944 22C193.078 22 189.944 18.6421 189.944 14.5C189.944 10.3579 193.078 7 196.944 7C200.81 7 203.944 10.3579 203.944 14.5Z" fill="black"/>
<path d="M186.37 56.405L180.148 56.3361C180.044 55.53 179.82 54.8125 179.476 54.1837C179.133 53.5454 178.689 53.0007 178.145 52.5495C177.601 52.0984 176.97 51.7505 176.253 51.5058C175.545 51.2612 174.775 51.1343 173.942 51.1251C172.436 51.1084 171.12 51.468 169.995 52.2037C168.869 52.9299 167.991 53.9998 167.36 55.4133C166.729 56.8174 166.402 58.5279 166.379 60.5449C166.357 62.6186 166.645 64.3643 167.245 65.782C167.854 67.1998 168.714 68.2748 169.823 69.0068C170.932 69.7388 172.221 70.1129 173.689 70.1292C174.512 70.1383 175.276 70.0378 175.979 69.8278C176.692 69.6178 177.325 69.3076 177.879 68.897C178.433 68.477 178.893 67.966 179.259 67.3639C179.635 66.762 179.899 66.0736 180.049 65.2987L186.27 65.3959C186.094 66.7293 185.678 68.0126 185.02 69.246C184.372 70.4699 183.503 71.5636 182.413 72.527C181.332 73.481 180.045 74.2338 178.552 74.7855C177.069 75.3279 175.394 75.5887 173.529 75.5681C170.934 75.5394 168.621 74.9266 166.589 73.7298C164.566 72.5331 162.975 70.8156 161.816 68.5772C160.666 66.339 160.109 63.6385 160.144 60.4759C160.179 57.3037 160.806 54.6116 162.023 52.3996C163.241 50.1875 164.879 48.5105 166.937 47.3684C168.996 46.2169 171.303 45.6552 173.86 45.6835C175.545 45.7022 177.105 45.9562 178.539 46.4456C179.983 46.9351 181.258 47.6405 182.365 48.5619C183.473 49.4738 184.37 50.587 185.056 51.9015C185.752 53.2161 186.189 54.7173 186.37 56.405Z" fill="#A44490"/>
</g>
<defs>
<clipPath id="clip0_90_25">
<rect width="443.454" height="89" fill="white" transform="translate(21.9441 5)"/>
</clipPath>
</defs>
</svg>
